<svg width="32" height="32" viewBox="0 0 32 32" fill="none" xmlns="http://www.w3.org/2000/svg"><path d="M3.740 7.040 C 3.232 7.161,2.916 7.699,3.039 8.236 C 3.133 8.649,3.462 8.933,3.909 8.986 C 4.062 9.004,9.611 9.011,16.240 9.003 C 29.174 8.986,28.380 9.003,28.685 8.727 C 28.885 8.546,28.977 8.316,28.977 8.000 C 28.977 7.684,28.885 7.454,28.685 7.273 C 28.380 6.997,29.188 7.014,16.107 7.005 C 9.404 7.001,3.839 7.016,3.740 7.040 M3.740 12.373 C 3.232 12.494,2.916 13.033,3.039 13.569 C 3.133 13.983,3.462 14.266,3.909 14.319 C 4.062 14.337,9.611 14.345,16.240 14.336 C 29.174 14.319,28.380 14.336,28.685 14.060 C 28.885 13.879,28.977 13.649,28.977 13.333 C 28.977 13.018,28.885 12.788,28.685 12.607 C 28.380 12.330,29.188 12.347,16.107 12.339 C 9.404 12.334,3.839 12.350,3.740 12.373 M3.740 17.706 C 3.232 17.827,2.916 18.366,3.039 18.903 C 3.133 19.316,3.462 19.600,3.909 19.652 C 4.062 19.670,9.611 19.678,16.240 19.669 C 29.174 19.652,28.380 19.670,28.685 19.393 C 28.885 19.212,28.977 18.982,28.977 18.667 C 28.977 18.351,28.885 18.121,28.685 17.940 C 28.380 17.663,29.188 17.681,16.107 17.672 C 9.404 17.667,3.839 17.683,3.740 17.706 M3.740 23.040 C 3.232 23.161,2.916 23.699,3.039 24.236 C 3.133 24.649,3.462 24.933,3.909 24.986 C 4.062 25.004,9.611 25.011,16.240 25.003 C 29.174 24.986,28.380 25.003,28.685 24.727 C 28.885 24.546,28.977 24.316,28.977 24.000 C 28.977 23.684,28.885 23.454,28.685 23.273 C 28.380 22.997,29.188 23.014,16.107 23.005 C 9.404 23.001,3.839 23.016,3.740 23.040 " stroke="none" fill-rule="evenodd" fill="black"></path></svg>