<svg aria-hidden="true" style="position: absolute; width: 0; height: 0; overflow: hidden;" version="1.1" xmlns="http://www.w3.org/2000/svg" xmlns:xlink="http://www.w3.org/1999/xlink">
<defs>
<symbol id="icon-arrow" viewBox="0 0 32 32">
<path d="M14.133 16.947c-0.125-0.124-0.224-0.271-0.292-0.434s-0.103-0.337-0.103-0.513 0.035-0.35 0.103-0.513c0.068-0.162 0.167-0.31 0.292-0.434l6.12-6.107c0.125-0.124 0.224-0.271 0.292-0.434s0.103-0.337 0.103-0.513c0-0.176-0.035-0.35-0.103-0.513s-0.167-0.31-0.292-0.434c-0.25-0.248-0.588-0.388-0.94-0.388s-0.69 0.139-0.94 0.388l-6.12 6.12c-0.749 0.75-1.17 1.767-1.17 2.827s0.421 2.077 1.17 2.827l6.12 6.12c0.248 0.246 0.584 0.385 0.933 0.387 0.175 0.001 0.349-0.033 0.512-0.099s0.31-0.164 0.435-0.288c0.125-0.124 0.224-0.271 0.292-0.434s0.103-0.337 0.103-0.513c0-0.176-0.035-0.35-0.103-0.513s-0.167-0.31-0.292-0.434l-6.12-6.107z"></path>
</symbol>
<symbol id="icon-burger" viewBox="0 0 32 32">
<path d="M3.74 7.040c-0.508 0.121-0.824 0.659-0.701 1.196 0.094 0.413 0.423 0.697 0.87 0.75 0.153 0.018 5.702 0.025 12.331 0.017 12.934-0.017 12.14 0 12.445-0.276 0.2-0.181 0.292-0.411 0.292-0.727s-0.092-0.546-0.292-0.727c-0.305-0.276 0.503-0.259-12.578-0.268-6.703-0.004-12.268 0.011-12.367 0.035zM3.74 12.373c-0.508 0.121-0.824 0.66-0.701 1.196 0.094 0.414 0.423 0.697 0.87 0.75 0.153 0.018 5.702 0.026 12.331 0.017 12.934-0.017 12.14 0 12.445-0.276 0.2-0.181 0.292-0.411 0.292-0.727 0-0.315-0.092-0.545-0.292-0.726-0.305-0.277 0.503-0.26-12.578-0.268-6.703-0.005-12.268 0.011-12.367 0.034zM3.74 17.706c-0.508 0.121-0.824 0.66-0.701 1.197 0.094 0.413 0.423 0.697 0.87 0.749 0.153 0.018 5.702 0.026 12.331 0.017 12.934-0.017 12.14 0.001 12.445-0.276 0.2-0.181 0.292-0.411 0.292-0.726 0-0.316-0.092-0.546-0.292-0.727-0.305-0.277 0.503-0.259-12.578-0.268-6.703-0.005-12.268 0.011-12.367 0.034zM3.74 23.040c-0.508 0.121-0.824 0.659-0.701 1.196 0.094 0.413 0.423 0.697 0.87 0.75 0.153 0.018 5.702 0.025 12.331 0.017 12.934-0.017 12.14 0 12.445-0.276 0.2-0.181 0.292-0.411 0.292-0.727s-0.092-0.546-0.292-0.727c-0.305-0.276 0.503-0.259-12.578-0.268-6.703-0.004-12.268 0.011-12.367 0.035z"></path>
</symbol>
<symbol id="icon-cart" viewBox="0 0 32 32">
<path d="M0.827 0.261c-0.867 0.401-0.899 1.663-0.053 2.131 0.14 0.077 0.455 0.091 2.533 0.115l2.373 0.027 1.737 8.671c1.704 8.5 1.741 8.679 1.956 9.12 0.507 1.041 1.423 1.803 2.499 2.077 0.4 0.103 0.62 0.105 7.515 0.105s7.115-0.003 7.515-0.105c0.76-0.195 1.512-0.683 2.021-1.309 0.285-0.352 0.632-1.033 0.725-1.425 0.189-0.797 2.192-11.469 2.192-11.681 0-0.436-0.233-0.833-0.613-1.044-0.147-0.081-1.043-0.091-11.2-0.115l-11.040-0.027-0.591-2.933c-0.325-1.613-0.629-3.005-0.676-3.093-0.116-0.22-0.349-0.432-0.585-0.531-0.171-0.072-0.6-0.083-3.147-0.081-2.756 0.001-2.961 0.008-3.161 0.1zM29.189 9.213c0.036 0.063-1.819 9.719-1.917 9.984-0.12 0.323-0.444 0.659-0.78 0.809l-0.279 0.127h-13.653l-0.279-0.127c-0.336-0.151-0.659-0.487-0.78-0.809-0.085-0.227-2.008-9.735-2.008-9.929 0-0.091 0.471-0.095 9.837-0.095 5.409 0 9.847 0.019 9.859 0.040zM11.303 25.431c-1.145 0.299-1.979 1.404-1.967 2.607 0.013 1.276 0.984 2.391 2.251 2.585 0.871 0.133 1.659-0.125 2.284-0.752 0.432-0.432 0.664-0.88 0.752-1.457 0.248-1.619-0.993-3.073-2.623-3.073-0.191 0-0.504 0.041-0.697 0.091zM25.969 25.431c-1.145 0.299-1.979 1.404-1.967 2.607 0.013 1.276 0.984 2.391 2.251 2.585 0.871 0.133 1.659-0.125 2.284-0.752 0.432-0.432 0.664-0.88 0.752-1.457 0.248-1.619-0.993-3.073-2.623-3.073-0.191 0-0.504 0.041-0.697 0.091z"></path>
</symbol>
<symbol id="icon-favorites" viewBox="0 0 37 32">
<path fill="#9bb537" style="fill: var(--color1, #9bb537)" d="M7.325 12.723h23.133v17.735h-23.133v-17.735z"></path>
<path fill="#9bb537" style="fill: var(--color1, #9bb537)" d="M16.578 11.373c0 4.578-3.711 8.289-8.289 8.289s-8.289-3.711-8.289-8.289c0-4.578 3.711-8.289 8.289-8.289s8.289 3.711 8.289 8.289z"></path>
<path fill="#9bb537" style="fill: var(--color1, #9bb537)" d="M26.988 8.289c0 4.578-3.711 8.289-8.289 8.289s-8.289-3.711-8.289-8.289c0-4.578 3.711-8.289 8.289-8.289s8.289 3.711 8.289 8.289z"></path>
<path fill="#9bb537" style="fill: var(--color1, #9bb537)" d="M37.398 11.373c0 4.578-3.711 8.289-8.289 8.289s-8.289-3.711-8.289-8.289c0-4.578 3.711-8.289 8.289-8.289s8.289 3.711 8.289 8.289z"></path>
<path fill="#f8f8f8" style="fill: var(--color2, #f8f8f8)" d="M7.325 29.301h23.133v2.036c0 0.366-0.324 0.663-0.723 0.663h-21.687c-0.399 0-0.723-0.297-0.723-0.663v-2.036z"></path>
<path fill="#f8f8f8" style="fill: var(--color2, #f8f8f8)" d="M14.265 10.36c0-0.611 0.432-1.107 0.964-1.107s0.964 0.495 0.964 1.107v5.112c0 0.611-0.432 1.107-0.964 1.107s-0.964-0.495-0.964-1.107v-5.112z"></path>
<path fill="#f8f8f8" style="fill: var(--color2, #f8f8f8)" d="M17.349 10.36c0-0.611 0.604-1.107 1.349-1.107s1.349 0.495 1.349 1.107v5.112c0 0.611-0.604 1.107-1.349 1.107s-1.349-0.495-1.349-1.107v-5.112z"></path>
<path fill="#f8f8f8" style="fill: var(--color2, #f8f8f8)" d="M21.205 10.36c0-0.611 0.432-1.107 0.964-1.107s0.964 0.495 0.964 1.107v5.112c0 0.611-0.432 1.107-0.964 1.107s-0.964-0.495-0.964-1.107v-5.112z"></path>
<path fill="#050505" style="fill: var(--color3, #050505)" d="M28.184 3.131c0.289-0.030 0.581-0.045 0.878-0.045 3.714 0 6.861 2.413 7.938 5.746-0.289 0.030-0.581 0.045-0.878 0.045-3.714 0-6.861-2.413-7.938-5.746z"></path>
</symbol>
<symbol id="icon-reset" viewBox="0 0 32 32">
<path d="M7.533 6.756c-0.305 0.108-0.675 0.485-0.781 0.799-0.108 0.319-0.108 0.571 0.001 0.903 0.080 0.239 0.42 0.596 3.719 3.903l3.632 3.64-3.632 3.64c-3.299 3.307-3.639 3.664-3.719 3.903-0.048 0.145-0.087 0.351-0.087 0.457 0 0.54 0.412 1.101 0.92 1.252 0.344 0.103 0.483 0.103 0.844-0.004 0.28-0.081 0.407-0.201 3.929-3.719l3.64-3.633 3.64 3.633c3.523 3.517 3.649 3.637 3.929 3.719 0.361 0.107 0.5 0.107 0.844 0.004 0.372-0.111 0.728-0.467 0.839-0.839 0.103-0.344 0.103-0.483-0.004-0.844-0.081-0.28-0.201-0.407-3.719-3.929l-3.633-3.64 3.633-3.64c3.517-3.523 3.637-3.649 3.719-3.929 0.107-0.361 0.107-0.5 0.004-0.844-0.151-0.508-0.712-0.92-1.252-0.92-0.107 0-0.312 0.039-0.457 0.087-0.239 0.080-0.596 0.42-3.903 3.719l-3.64 3.632-3.64-3.632c-3.307-3.299-3.664-3.639-3.903-3.719-0.32-0.105-0.623-0.105-0.924 0.003z"></path>
</symbol>
<symbol id="icon-star" viewBox="0 0 32 32">
<path d="M15.41 1.118c0.25-0.474 0.929-0.474 1.179 0l4.148 7.862c0.096 0.183 0.272 0.311 0.476 0.346l8.759 1.515c0.528 0.091 0.738 0.737 0.364 1.122l-6.195 6.374c-0.144 0.148-0.211 0.355-0.182 0.559l1.265 8.798c0.076 0.531-0.473 0.93-0.954 0.693l-7.977-3.922c-0.185-0.091-0.403-0.091-0.588 0l-7.977 3.922c-0.481 0.237-1.030-0.163-0.954-0.693l1.265-8.798c0.029-0.205-0.038-0.411-0.182-0.559l-6.195-6.374c-0.374-0.384-0.164-1.030 0.364-1.122l8.758-1.515c0.204-0.035 0.38-0.163 0.476-0.346l4.148-7.862z"></path>
</symbol>
<symbol id="icon-loop" viewBox="0 0 32 32">
<path d="M28.947 27.054l-4.947-4.907c1.92-2.394 2.85-5.433 2.598-8.492s-1.666-5.905-3.951-7.953-5.269-3.143-8.337-3.059c-3.068 0.084-5.987 1.34-8.157 3.51s-3.426 5.089-3.51 8.157c-0.084 3.068 1.011 6.051 3.059 8.337s4.894 3.7 7.953 3.951c3.059 0.252 6.098-0.678 8.492-2.598l4.907 4.907c0.124 0.125 0.271 0.224 0.434 0.292s0.337 0.102 0.513 0.102c0.176 0 0.35-0.035 0.513-0.102s0.31-0.167 0.434-0.292c0.24-0.249 0.375-0.581 0.375-0.927s-0.134-0.678-0.375-0.927zM14.667 24.001c-1.846 0-3.65-0.547-5.185-1.573s-2.731-2.483-3.438-4.189c-0.706-1.705-0.891-3.582-0.531-5.393s1.249-3.474 2.554-4.779c1.305-1.305 2.968-2.194 4.779-2.554s3.687-0.175 5.392 0.531c1.706 0.706 3.163 1.903 4.189 3.438s1.573 3.339 1.573 5.185c0 2.475-0.983 4.849-2.734 6.6s-4.124 2.734-6.6 2.734z"></path>
</symbol>
<symbol id="icon-heartFull" viewBox="0 0 32 32">
<path d="M15.991 6.848c-2.666-3.117-7.111-3.955-10.451-1.101s-3.81 7.625-1.187 11c2.181 2.806 8.781 8.725 10.944 10.641 0.242 0.214 0.363 0.321 0.504 0.364 0.123 0.037 0.258 0.037 0.381 0 0.141-0.042 0.262-0.149 0.504-0.364 2.163-1.916 8.763-7.834 10.944-10.641 2.623-3.375 2.21-8.177-1.187-11.001s-7.786-2.015-10.451 1.101z"></path>
</symbol>
<symbol id="icon-heart" viewBox="0 0 32 32">
<path stroke-linejoin="round" stroke-linecap="round" stroke-miterlimit="4" stroke-width="2.9091" d="M15.991 6.848c-2.666-3.117-7.111-3.955-10.451-1.101s-3.81 7.625-1.187 11c2.181 2.806 8.781 8.725 10.944 10.641 0.242 0.214 0.363 0.321 0.504 0.364 0.123 0.037 0.258 0.037 0.381 0 0.141-0.042 0.262-0.149 0.504-0.364 2.163-1.916 8.763-7.834 10.944-10.641 2.623-3.375 2.21-8.177-1.187-11.001s-7.785-2.015-10.451 1.101z"></path>
</symbol>
<symbol id="icon-heart-converted" viewBox="0 0 32 32">
<path stroke-linejoin="round" stroke-linecap="round" stroke-miterlimit="4" stroke-width="2.9091" d="M15.991 6.848c-2.666-3.117-7.111-3.955-10.451-1.101s-3.81 7.625-1.187 11c2.181 2.806 8.781 8.725 10.944 10.641 0.242 0.214 0.363 0.321 0.504 0.364 0.123 0.037 0.258 0.037 0.381 0 0.141-0.042 0.262-0.149 0.504-0.364 2.163-1.916 8.763-7.834 10.944-10.641 2.623-3.375 2.21-8.177-1.187-11.001s-7.785-2.015-10.451 1.101z"></path>
</symbol>
</defs>
</svg>
