<svg aria-hidden="true" style="position:absolute;width:0;height:0;overflow:hidden" xmlns="http://www.w3.org/2000/svg"><defs><symbol id="icon-arrow" viewBox="0 0 32 32"><path d="M14.133 16.947a1.334 1.334 0 0 1 0-1.894l6.12-6.107a1.334 1.334 0 1 0-1.88-1.894l-6.12 6.12a4.001 4.001 0 0 0 0 5.654l6.12 6.12a1.337 1.337 0 0 0 2.172-.434 1.331 1.331 0 0 0-.292-1.46l-6.12-6.107z"/></symbol><symbol id="icon-burger" viewBox="0 0 32 32"><path d="M3.74 7.04c-.508.121-.824.659-.701 1.196.094.413.423.697.87.75.153.018 5.702.025 12.331.017 12.934-.017 12.14 0 12.445-.276.2-.181.292-.411.292-.727s-.092-.546-.292-.727c-.305-.276.503-.259-12.578-.268-6.703-.004-12.268.011-12.367.035zm0 5.333c-.508.121-.824.66-.701 1.196.094.414.423.697.87.75.153.018 5.702.026 12.331.017 12.934-.017 12.14 0 12.445-.276.2-.181.292-.411.292-.727 0-.315-.092-.545-.292-.726-.305-.277.503-.26-12.578-.268-6.703-.005-12.268.011-12.367.034zm0 5.333c-.508.121-.824.66-.701 1.197.094.413.423.697.87.749.153.018 5.702.026 12.331.017 12.934-.017 12.14.001 12.445-.276.2-.181.292-.411.292-.726 0-.316-.092-.546-.292-.727-.305-.277.503-.259-12.578-.268-6.703-.005-12.268.011-12.367.034zm0 5.334c-.508.121-.824.659-.701 1.196.094.413.423.697.87.75.153.018 5.702.025 12.331.017 12.934-.017 12.14 0 12.445-.276.2-.181.292-.411.292-.727s-.092-.546-.292-.727c-.305-.276.503-.259-12.578-.268-6.703-.004-12.268.011-12.367.035z"/></symbol><symbol id="icon-cart" viewBox="0 0 32 32"><path d="M.827.261C-.04.662-.072 1.924.774 2.392c.14.077.455.091 2.533.115l2.373.027 1.737 8.671c1.704 8.5 1.741 8.679 1.956 9.12.507 1.041 1.423 1.803 2.499 2.077.4.103.62.105 7.515.105s7.115-.003 7.515-.105a3.972 3.972 0 0 0 2.021-1.309c.285-.352.632-1.033.725-1.425.189-.797 2.192-11.469 2.192-11.681a1.19 1.19 0 0 0-.613-1.044c-.147-.081-1.043-.091-11.2-.115l-11.04-.027-.591-2.933C8.071 2.255 7.767.863 7.72.775a1.254 1.254 0 0 0-.585-.531c-.171-.072-.6-.083-3.147-.081-2.756.001-2.961.008-3.161.1zm28.362 8.952c.036.063-1.819 9.719-1.917 9.984-.12.323-.444.659-.78.809l-.279.127H12.56l-.279-.127c-.336-.151-.659-.487-.78-.809-.085-.227-2.008-9.735-2.008-9.929 0-.091.471-.095 9.837-.095 5.409 0 9.847.019 9.859.04zM11.303 25.431c-1.145.299-1.979 1.404-1.967 2.607.013 1.276.984 2.391 2.251 2.585a2.563 2.563 0 0 0 2.284-.752c.432-.432.664-.88.752-1.457A2.66 2.66 0 0 0 12 25.341c-.191 0-.504.041-.697.091zm14.666 0c-1.145.299-1.979 1.404-1.967 2.607.013 1.276.984 2.391 2.251 2.585a2.563 2.563 0 0 0 2.284-.752c.432-.432.664-.88.752-1.457a2.66 2.66 0 0 0-2.623-3.073c-.191 0-.504.041-.697.091z"/></symbol><symbol id="icon-favorites" viewBox="0 0 37 32"><path fill="#9bb537" style="fill:var(--color1, #9bb537)" d="M7.325 12.723h23.133v17.735H7.325V12.723z"/><path fill="#9bb537" style="fill:var(--color1, #9bb537)" d="M16.578 11.373a8.289 8.289 0 1 1-16.578 0 8.289 8.289 0 1 1 16.578 0z"/><path fill="#9bb537" style="fill:var(--color1, #9bb537)" d="M26.988 8.289a8.289 8.289 0 1 1-16.578 0 8.289 8.289 0 1 1 16.578 0z"/><path fill="#9bb537" style="fill:var(--color1, #9bb537)" d="M37.398 11.373a8.289 8.289 0 1 1-16.578 0 8.289 8.289 0 1 1 16.578 0z"/><path fill="#f8f8f8" style="fill:var(--color2, #f8f8f8)" d="M7.325 29.301h23.133v2.036c0 .366-.324.663-.723.663H8.048c-.399 0-.723-.297-.723-.663v-2.036zm6.94-18.941c0-.611.432-1.107.964-1.107s.964.495.964 1.107v5.112c0 .611-.432 1.107-.964 1.107s-.964-.495-.964-1.107V10.36zm3.084 0c0-.611.604-1.107 1.349-1.107s1.349.495 1.349 1.107v5.112c0 .611-.604 1.107-1.349 1.107s-1.349-.495-1.349-1.107V10.36zm3.856 0c0-.611.432-1.107.964-1.107s.964.495.964 1.107v5.112c0 .611-.432 1.107-.964 1.107s-.964-.495-.964-1.107V10.36z"/><path fill="#050505" style="fill:var(--color3, #050505)" d="M28.184 3.131c.289-.03.581-.045.878-.045A8.333 8.333 0 0 1 37 8.832c-.289.03-.581.045-.878.045a8.333 8.333 0 0 1-7.938-5.746z"/></symbol><symbol id="icon-reset" viewBox="0 0 32 32"><path d="M7.533 6.756c-.305.108-.675.485-.781.799-.108.319-.108.571.001.903.08.239.42.596 3.719 3.903l3.632 3.64-3.632 3.64c-3.299 3.307-3.639 3.664-3.719 3.903a1.807 1.807 0 0 0-.087.457c0 .54.412 1.101.92 1.252.344.103.483.103.844-.004.28-.081.407-.201 3.929-3.719l3.64-3.633 3.64 3.633c3.523 3.517 3.649 3.637 3.929 3.719.361.107.5.107.844.004a1.34 1.34 0 0 0 .839-.839c.103-.344.103-.483-.004-.844-.081-.28-.201-.407-3.719-3.929l-3.633-3.64 3.633-3.64c3.517-3.523 3.637-3.649 3.719-3.929.107-.361.107-.5.004-.844-.151-.508-.712-.92-1.252-.92-.107 0-.312.039-.457.087-.239.08-.596.42-3.903 3.719l-3.64 3.632-3.64-3.632C9.052 7.175 8.695 6.835 8.456 6.755a1.375 1.375 0 0 0-.924.003z"/></symbol><symbol id="icon-star" viewBox="0 0 32 32"><path d="M15.41 1.118a.667.667 0 0 1 1.179 0l4.148 7.862a.664.664 0 0 0 .476.346l8.759 1.515a.667.667 0 0 1 .364 1.122l-6.195 6.374a.668.668 0 0 0-.182.559l1.265 8.798a.666.666 0 0 1-.954.693l-7.977-3.922a.667.667 0 0 0-.588 0l-7.977 3.922a.667.667 0 0 1-.954-.693l1.265-8.798a.667.667 0 0 0-.182-.559l-6.195-6.374a.667.667 0 0 1 .364-1.122l8.758-1.515a.664.664 0 0 0 .476-.346l4.148-7.862z"/></symbol><symbol id="icon-loop" viewBox="0 0 32 32"><path d="M28.947 27.054 24 22.147a11.999 11.999 0 0 0-1.353-16.445 12 12 0 1 0-.5 18.298l4.907 4.907a1.334 1.334 0 0 0 1.894 0 1.336 1.336 0 0 0 0-1.854zm-14.28-3.053a9.33 9.33 0 0 1-8.623-5.762A9.339 9.339 0 0 1 8.067 8.067a9.331 9.331 0 0 1 14.36 1.415 9.33 9.33 0 0 1-1.161 11.785 9.332 9.332 0 0 1-6.6 2.734z"/></symbol><symbol id="icon-heartFull" viewBox="0 0 32 32"><path d="M15.991 6.848C13.325 3.731 8.88 2.893 5.54 5.747s-3.81 7.625-1.187 11c2.181 2.806 8.781 8.725 10.944 10.641.242.214.363.321.504.364a.668.668 0 0 0 .381 0c.141-.042.262-.149.504-.364 2.163-1.916 8.763-7.834 10.944-10.641 2.623-3.375 2.21-8.177-1.187-11.001s-7.786-2.015-10.451 1.101z"/></symbol><symbol id="icon-heart" viewBox="0 0 32 32"><path stroke-linejoin="round" stroke-linecap="round" stroke-width="2.909" d="M15.991 6.848C13.325 3.731 8.88 2.893 5.54 5.747s-3.81 7.625-1.187 11c2.181 2.806 8.781 8.725 10.944 10.641.242.214.363.321.504.364a.668.668 0 0 0 .381 0c.141-.042.262-.149.504-.364 2.163-1.916 8.763-7.834 10.944-10.641 2.623-3.375 2.21-8.177-1.187-11.001s-7.785-2.015-10.451 1.101z"/></symbol><symbol id="icon-heart-converted" viewBox="0 0 32 32"><path stroke-linejoin="round" stroke-linecap="round" stroke-width="2.909" d="M15.991 6.848C13.325 3.731 8.88 2.893 5.54 5.747s-3.81 7.625-1.187 11c2.181 2.806 8.781 8.725 10.944 10.641.242.214.363.321.504.364a.668.668 0 0 0 .381 0c.141-.042.262-.149.504-.364 2.163-1.916 8.763-7.834 10.944-10.641 2.623-3.375 2.21-8.177-1.187-11.001s-7.785-2.015-10.451 1.101z"/></symbol></defs></svg>