<svg width="24" height="24" viewBox="0 0 24 24" fill="none" xmlns="http://www.w3.org/2000/svg"><path d="M0.620 0.196 C -0.030 0.497,-0.054 1.443,0.580 1.794 C 0.685 1.852,0.921 1.862,2.480 1.880 L 4.260 1.900 5.563 8.403 C 6.841 14.778,6.869 14.912,7.030 15.243 C 7.410 16.024,8.097 16.595,8.904 16.801 C 9.204 16.878,9.369 16.880,14.540 16.880 C 19.711 16.880,19.876 16.878,20.176 16.801 C 20.746 16.655,21.310 16.289,21.692 15.819 C 21.906 15.555,22.166 15.044,22.236 14.750 C 22.378 14.152,23.880 6.148,23.880 5.989 C 23.880 5.662,23.705 5.364,23.420 5.206 C 23.310 5.145,22.638 5.138,15.020 5.120 L 6.740 5.100 6.297 2.900 C 6.053 1.690,5.825 0.646,5.790 0.580 C 5.703 0.415,5.528 0.256,5.351 0.182 C 5.223 0.128,4.901 0.120,2.991 0.121 C 0.924 0.122,0.770 0.127,0.620 0.196 M21.892 6.910 C 21.919 6.957,20.528 14.199,20.454 14.398 C 20.364 14.640,20.121 14.892,19.869 15.005 L 19.660 15.100 14.540 15.100 L 9.420 15.100 9.211 15.005 C 8.959 14.892,8.717 14.640,8.626 14.398 C 8.562 14.228,7.120 7.097,7.120 6.951 C 7.120 6.883,7.473 6.880,14.498 6.880 C 18.555 6.880,21.883 6.894,21.892 6.910 M8.477 19.073 C 7.618 19.297,6.993 20.126,7.002 21.028 C 7.012 21.985,7.740 22.821,8.690 22.967 C 9.343 23.067,9.934 22.873,10.403 22.403 C 10.727 22.079,10.901 21.743,10.967 21.310 C 11.153 20.096,10.222 19.005,9.000 19.005 C 8.857 19.005,8.622 19.036,8.477 19.073 M19.477 19.073 C 18.618 19.297,17.993 20.126,18.002 21.028 C 18.012 21.985,18.740 22.821,19.690 22.967 C 20.343 23.067,20.934 22.873,21.403 22.403 C 21.727 22.079,21.901 21.743,21.967 21.310 C 22.153 20.096,21.222 19.005,20.000 19.005 C 19.857 19.005,19.622 19.036,19.477 19.073 " fill="#050505" stroke="none" fill-rule="evenodd"></path></svg>